<?xml version="1.0" encoding="UTF-8" standalone="no"?>
<!-- Generator: Adobe Illustrator 21.0.2, SVG Export Plug-In . SVG Version: 6.00 Build 0)  -->
<svg xmlns:dc="http://purl.org/dc/elements/1.1/" xmlns:cc="http://creativecommons.org/ns#" xmlns:rdf="http://www.w3.org/1999/02/22-rdf-syntax-ns#" xmlns:svg="http://www.w3.org/2000/svg" xmlns="http://www.w3.org/2000/svg" xmlns:sodipodi="http://sodipodi.sourceforge.net/DTD/sodipodi-0.dtd" xmlns:inkscape="http://www.inkscape.org/namespaces/inkscape" version="1.1" id="Ebene_1" x="0px" y="0px" viewBox="0 0 209.90353 141.9899" xml:space="preserve" inkscape:version="0.92.3 (2405546, 2018-03-11)" width="209.90353" height="141.9899" sodipodi:docname="sketch_handeye_calib_robotmounted.svg" inkscape:export-filename="/home/stelzer/doc/sensor_manual/source/images/sketch_handeye_calib_robotmounted.png" inkscape:export-xdpi="300" inkscape:export-ydpi="300"><metadata id="metadata69"><rdf:RDF><cc:Work rdf:about=""><dc:format>image/svg+xml</dc:format><dc:type rdf:resource="http://purl.org/dc/dcmitype/StillImage"/><dc:title>ico_robot_inactive</dc:title></cc:Work></rdf:RDF></metadata><defs id="defs67"><inkscape:perspective sodipodi:type="inkscape:persp3d" inkscape:vp_x="0 : 0.50000001 : 1" inkscape:vp_y="0 : 2.4956326 : 0" inkscape:vp_z="0.99999999 : 0.50000001 : 1" inkscape:persp3d-origin="0.49999999 : 0.33333335 : 1" id="perspective6593"/><marker inkscape:stockid="Arrow2Mend" orient="auto" refY="0" refX="0" id="Arrow2Mend" style="overflow:visible"><path id="path3830" style="fill-rule:evenodd;stroke-width:0.625;stroke-linejoin:round" d="M 8.7185878,4.0337352 -2.2072895,0.01601326 8.7185884,-4.0017078 c -1.7454984,2.3720609 -1.7354408,5.6174519 -6e-7,8.035443 z" transform="scale(-0.6)" inkscape:connector-curvature="0"/></marker><marker inkscape:stockid="Arrow1Lstart" orient="auto" refY="0" refX="0" id="Arrow1Lstart" style="overflow:visible"><path id="path3803" d="M 0,0 5,-5 -12.5,0 5,5 Z" style="fill-rule:evenodd;stroke:#000000;stroke-width:1.00000003pt" transform="matrix(0.8,0,0,0.8,10,0)" inkscape:connector-curvature="0"/></marker><marker inkscape:stockid="Arrow2Mstart" orient="auto" refY="0" refX="0" id="Arrow2Mstart" style="overflow:visible"><path id="path3827" style="fill-rule:evenodd;stroke-width:0.625;stroke-linejoin:round" d="M 8.7185878,4.0337352 -2.2072895,0.01601326 8.7185884,-4.0017078 c -1.7454984,2.3720609 -1.7354408,5.6174519 -6e-7,8.035443 z" transform="scale(0.6)" inkscape:connector-curvature="0"/></marker><marker inkscape:stockid="Arrow2Mstart" orient="auto" refY="0" refX="0" id="Arrow2Mstart-6" style="overflow:visible"><path inkscape:connector-curvature="0" id="path3827-7" style="fill-rule:evenodd;stroke-width:0.625;stroke-linejoin:round" d="M 8.7185878,4.0337352 -2.2072895,0.01601326 8.7185884,-4.0017078 c -1.7454984,2.3720609 -1.7354408,5.6174519 -6e-7,8.035443 z" transform="scale(0.6)"/></marker><marker inkscape:stockid="Arrow2Mstart" orient="auto" refY="0" refX="0" id="Arrow2Mstart-3" style="overflow:visible"><path inkscape:connector-curvature="0" id="path3827-5" style="fill-rule:evenodd;stroke-width:0.625;stroke-linejoin:round" d="M 8.7185878,4.0337352 -2.2072895,0.01601326 8.7185884,-4.0017078 c -1.7454984,2.3720609 -1.7354408,5.6174519 -6e-7,8.035443 z" transform="scale(0.6)"/></marker><marker inkscape:stockid="Arrow2Mstart" orient="auto" refY="0" refX="0" id="Arrow2Mstart-2" style="overflow:visible"><path inkscape:connector-curvature="0" id="path3827-9" style="fill-rule:evenodd;stroke-width:0.625;stroke-linejoin:round" d="M 8.7185878,4.0337352 -2.2072895,0.01601326 8.7185884,-4.0017078 c -1.7454984,2.3720609 -1.7354408,5.6174519 -6e-7,8.035443 z" transform="scale(0.6)"/></marker><marker inkscape:stockid="Arrow2Mstart" orient="auto" refY="0" refX="0" id="marker4295" style="overflow:visible"><path inkscape:connector-curvature="0" id="path4297" style="fill-rule:evenodd;stroke-width:0.625;stroke-linejoin:round" d="M 8.7185878,4.0337352 -2.2072895,0.01601326 8.7185884,-4.0017078 c -1.7454984,2.3720609 -1.7354408,5.6174519 -6e-7,8.035443 z" transform="scale(0.6)"/></marker><marker inkscape:stockid="Arrow2Mstart" orient="auto" refY="0" refX="0" id="marker4299" style="overflow:visible"><path inkscape:connector-curvature="0" id="path4301" style="fill-rule:evenodd;stroke-width:0.625;stroke-linejoin:round" d="M 8.7185878,4.0337352 -2.2072895,0.01601326 8.7185884,-4.0017078 c -1.7454984,2.3720609 -1.7354408,5.6174519 -6e-7,8.035443 z" transform="scale(0.6)"/></marker><marker inkscape:stockid="Arrow2Mstart" orient="auto" refY="0" refX="0" id="Arrow2Mstart-9" style="overflow:visible"><path inkscape:connector-curvature="0" id="path3827-3" style="fill-rule:evenodd;stroke-width:0.625;stroke-linejoin:round" d="M 8.7185878,4.0337352 -2.2072895,0.01601326 8.7185884,-4.0017078 c -1.7454984,2.3720609 -1.7354408,5.6174519 -6e-7,8.035443 z" transform="scale(0.6)"/></marker><marker inkscape:stockid="Arrow2Mstart" orient="auto" refY="0" refX="0" id="marker4295-6" style="overflow:visible"><path inkscape:connector-curvature="0" id="path4297-0" style="fill-rule:evenodd;stroke-width:0.625;stroke-linejoin:round" d="M 8.7185878,4.0337352 -2.2072895,0.01601326 8.7185884,-4.0017078 c -1.7454984,2.3720609 -1.7354408,5.6174519 -6e-7,8.035443 z" transform="scale(0.6)"/></marker><marker inkscape:stockid="Arrow2Mstart" orient="auto" refY="0" refX="0" id="marker4299-6" style="overflow:visible"><path inkscape:connector-curvature="0" id="path4301-2" style="fill-rule:evenodd;stroke-width:0.625;stroke-linejoin:round" d="M 8.7185878,4.0337352 -2.2072895,0.01601326 8.7185884,-4.0017078 c -1.7454984,2.3720609 -1.7354408,5.6174519 -6e-7,8.035443 z" transform="scale(0.6)"/></marker><marker inkscape:stockid="Arrow2Mstart" orient="auto" refY="0" refX="0" id="Arrow2Mstart-92" style="overflow:visible"><path inkscape:connector-curvature="0" id="path3827-0" style="fill-rule:evenodd;stroke-width:0.625;stroke-linejoin:round" d="M 8.7185878,4.0337352 -2.2072895,0.01601326 8.7185884,-4.0017078 c -1.7454984,2.3720609 -1.7354408,5.6174519 -6e-7,8.035443 z" transform="scale(0.6)"/></marker><marker inkscape:stockid="Arrow2Mstart" orient="auto" refY="0" refX="0" id="marker4369" style="overflow:visible"><path inkscape:connector-curvature="0" id="path4371" style="fill-rule:evenodd;stroke-width:0.625;stroke-linejoin:round" d="M 8.7185878,4.0337352 -2.2072895,0.01601326 8.7185884,-4.0017078 c -1.7454984,2.3720609 -1.7354408,5.6174519 -6e-7,8.035443 z" transform="scale(0.6)"/></marker><marker inkscape:stockid="Arrow2Mstart" orient="auto" refY="0" refX="0" id="marker4373" style="overflow:visible"><path inkscape:connector-curvature="0" id="path4375" style="fill-rule:evenodd;stroke-width:0.625;stroke-linejoin:round" d="M 8.7185878,4.0337352 -2.2072895,0.01601326 8.7185884,-4.0017078 c -1.7454984,2.3720609 -1.7354408,5.6174519 -6e-7,8.035443 z" transform="scale(0.6)"/></marker><marker inkscape:stockid="Arrow2Mstart" orient="auto" refY="0" refX="0" id="marker4373-9" style="overflow:visible"><path inkscape:connector-curvature="0" id="path4375-2" style="fill-rule:evenodd;stroke-width:0.625;stroke-linejoin:round" d="M 8.7185878,4.0337352 -2.2072895,0.01601326 8.7185884,-4.0017078 c -1.7454984,2.3720609 -1.7354408,5.6174519 -6e-7,8.035443 z" transform="scale(0.6)"/></marker><marker inkscape:stockid="Arrow2Mend" orient="auto" refY="0" refX="0" id="Arrow2Mend-2" style="overflow:visible"><path inkscape:connector-curvature="0" id="path3830-8" style="fill-rule:evenodd;stroke-width:0.625;stroke-linejoin:round" d="M 8.7185878,4.0337352 -2.2072895,0.01601326 8.7185884,-4.0017078 c -1.7454984,2.3720609 -1.7354408,5.6174519 -6e-7,8.035443 z" transform="scale(-0.6)"/></marker><marker inkscape:stockid="Arrow2Mstart" orient="auto" refY="0" refX="0" id="marker4373-2" style="overflow:visible"><path inkscape:connector-curvature="0" id="path4375-9" style="fill-rule:evenodd;stroke-width:0.625;stroke-linejoin:round" d="M 8.7185878,4.0337352 -2.2072895,0.01601326 8.7185884,-4.0017078 c -1.7454984,2.3720609 -1.7354408,5.6174519 -6e-7,8.035443 z" transform="scale(0.6)"/></marker><marker inkscape:stockid="Arrow2Mend" orient="auto" refY="0" refX="0" id="Arrow2Mend-1" style="overflow:visible"><path inkscape:connector-curvature="0" id="path3830-2" style="fill-rule:evenodd;stroke-width:0.625;stroke-linejoin:round" d="M 8.7185878,4.0337352 -2.2072895,0.01601326 8.7185884,-4.0017078 c -1.7454984,2.3720609 -1.7354408,5.6174519 -6e-7,8.035443 z" transform="scale(-0.6)"/></marker><marker inkscape:stockid="Arrow2Mstart" orient="auto" refY="0" refX="0" id="marker4373-4" style="overflow:visible"><path inkscape:connector-curvature="0" id="path4375-99" style="fill-rule:evenodd;stroke-width:0.625;stroke-linejoin:round" d="M 8.7185878,4.0337352 -2.2072895,0.01601326 8.7185884,-4.0017078 c -1.7454984,2.3720609 -1.7354408,5.6174519 -6e-7,8.035443 z" transform="scale(0.6)"/></marker><marker inkscape:stockid="Arrow2Mend" orient="auto" refY="0" refX="0" id="Arrow2Mend-9" style="overflow:visible"><path inkscape:connector-curvature="0" id="path3830-4" style="fill-rule:evenodd;stroke-width:0.625;stroke-linejoin:round" d="M 8.7185878,4.0337352 -2.2072895,0.01601326 8.7185884,-4.0017078 c -1.7454984,2.3720609 -1.7354408,5.6174519 -6e-7,8.035443 z" transform="scale(-0.6)"/></marker><clipPath clipPathUnits="userSpaceOnUse" id="clipPath5280"><rect style="fill:#e6e6e7;fill-opacity:0.28767126;fill-rule:nonzero;stroke:none" id="rect5282" width="61.13084" height="44.350056" x="-317.88129" y="48.992893" ry="1.3876112"/></clipPath><clipPath clipPathUnits="userSpaceOnUse" id="clipPath5291"><path style="fill:#e6e6e7;fill-opacity:0.28767126;fill-rule:nonzero;stroke:none" d="m -274.78501,25.385653 0.376,30.598725 -42.13017,15.375665 c -0.97024,0 -0.625,-55.848725 -0.625,-55.848725 0,-0.970237 42.37884,9.874335 42.37884,9.874335 z" id="path5293" inkscape:connector-curvature="0" sodipodi:nodetypes="cccccc"/></clipPath><clipPath clipPathUnits="userSpaceOnUse" id="clipPath5303"><path sodipodi:nodetypes="cccccc" inkscape:connector-curvature="0" id="path5305" d="m -340.19598,55.332907 -0.38143,30.840597 42.73899,15.497196 c 0.98427,0 0.63404,-56.290179 0.63404,-56.290179 0,-0.977907 -42.99126,9.952386 -42.99126,9.952386 z" style="fill:#e6e6e7;fill-opacity:0.28767126;fill-rule:nonzero;stroke:none"/></clipPath><clipPath clipPathUnits="userSpaceOnUse" id="clipPath5307"><path style="fill:#616165;fill-opacity:0.74885846;fill-rule:nonzero;stroke:none" d="m -192.57786,176.05694 40.35251,-0.0591 c 0.98427,0 13.18518,-32.42533 13.18518,-32.42533 l -65.08834,0.0529 z" id="path5309" inkscape:connector-curvature="0" sodipodi:nodetypes="ccccc"/></clipPath><marker inkscape:stockid="Arrow2Mend" orient="auto" refY="0" refX="0" id="Arrow2Mend-9-5" style="overflow:visible"><path inkscape:connector-curvature="0" id="path3830-4-0" style="fill-rule:evenodd;stroke-width:0.625;stroke-linejoin:round" d="M 8.7185878,4.0337352 -2.2072895,0.01601326 8.7185884,-4.0017078 c -1.7454984,2.3720609 -1.7354408,5.6174519 -6e-7,8.035443 z" transform="scale(-0.6)"/></marker><clipPath clipPathUnits="userSpaceOnUse" id="clipPath5742"><rect style="fill:none;stroke:#66696d;stroke-width:1.528;stroke-miterlimit:4;stroke-dasharray:none;stroke-dashoffset:0;stroke-opacity:1" id="rect5744" width="135.05733" height="112.43" x="143.54271" y="651.01575"/></clipPath><clipPath clipPathUnits="userSpaceOnUse" id="clipPath6619"><rect y="195.70236" x="608.13409" height="113.22748" width="151.15645" id="rect6621" style="fill:none;stroke:#66696d;stroke-width:1.53273737;stroke-miterlimit:4;stroke-dasharray:none;stroke-dashoffset:0;stroke-opacity:1"/></clipPath><clipPath clipPathUnits="userSpaceOnUse" id="clipPath5291-3"><path style="fill:#e6e6e7;fill-opacity:0.28767126;fill-rule:nonzero;stroke:none" d="m -274.78501,25.385653 0.376,30.598725 -42.13017,15.375665 c -0.97024,0 -0.625,-55.848725 -0.625,-55.848725 0,-0.970237 42.37884,9.874335 42.37884,9.874335 z" id="path5293-5" inkscape:connector-curvature="0" sodipodi:nodetypes="cccccc"/></clipPath>








</defs><sodipodi:namedview pagecolor="#ffffff" bordercolor="#666666" borderopacity="1" objecttolerance="10" gridtolerance="10" guidetolerance="10" inkscape:pageopacity="0" inkscape:pageshadow="2" inkscape:window-width="1853" inkscape:window-height="1025" id="namedview65" showgrid="false" inkscape:zoom="4.0000001" inkscape:cx="111.95328" inkscape:cy="69.207228" inkscape:window-x="67" inkscape:window-y="27" inkscape:window-maximized="1" inkscape:current-layer="Ebene_1" showguides="true" inkscape:guide-bbox="true" fit-margin-top="0" fit-margin-left="0" fit-margin-right="0" fit-margin-bottom="0"><inkscape:grid type="xygrid" id="grid6482" originx="-90.0241" originy="-240.95794"/></sodipodi:namedview><style type="text/css" id="style3">
	.st0{fill:#FFFFFF;}
	.st1{fill:#66696D;}
	.st2{fill:#FFFFFF;stroke:#66696D;stroke-width:3;stroke-linejoin:round;}
	.st3{fill:#FFFFFF;stroke:#66696D;stroke-width:2;stroke-linejoin:round;}
	.st4{fill:none;stroke:#66696D;stroke-width:2;stroke-linejoin:round;}
	.st5{fill:none;stroke:#66696D;stroke-width:1.5;stroke-linecap:round;stroke-linejoin:round;}
	.st6{fill:none;stroke:#66696D;stroke-width:5;stroke-linejoin:round;}
	.st7{fill:none;stroke:#66696D;stroke-width:2;stroke-linecap:round;stroke-linejoin:round;}
	.st8{fill:#FFFFFF;stroke:#66696D;stroke-width:5;stroke-linejoin:round;}
</style><title id="title5">ico_robot_inactive</title><path style="fill:#e6e6e7;fill-opacity:1;stroke:none" d="m 90.958007,137.41326 32.155303,-94.66522 84.6171,58.10184 c 0,0 -43.12599,56.33798 -116.772403,36.56338 z" id="path8346" inkscape:connector-curvature="0" sodipodi:nodetypes="cccc" inkscape:transform-center-x="-26.2309" inkscape:transform-center-y="49.436648"/><g inkscape:transform-center-y="25.936046" transform="rotate(6.234555,1412.5502,-1215.789)" inkscape:transform-center-x="-49.975118" id="g4561"><g id="g4563" inkscape:transform-center-x="-14.309772" transform="rotate(57.828479,239.97554,169.98549)" inkscape:transform-center-y="8.6681498"><rect x="-154.63242" y="254.0038" transform="rotate(-85.138233)" class="st0" width="10.900283" height="14.800385" id="rect4565" style="fill:#ffffff"/><path class="st1" d="m 242.39596,166.62946 11.3578,1.0002 -0.61852,7.38359 -11.3578,-1.00019 z m -3.07669,-3.67477 -1.18806,14.2309 18.08073,1.50243 1.18805,-14.2309 z" id="path4567" inkscape:connector-curvature="0" style="fill:#66696d"/><path class="st3" d="m 282.38342,162.86071 -14.71393,-3.86138 c -0.84212,-0.37528 -1.82907,-0.18573 -2.60603,0.35865 l -9.19906,6.59979 c -1.29492,0.90729 -1.70087,2.6976 -0.98526,4.0496 l 0.15292,0.16315 c 1.07044,1.142 2.89951,1.32772 4.16589,0.32459 l 8.25897,-5.9025 14.46134,0.91075 c 0.63213,0.0205 1.34178,-0.39954 1.42953,-1.15605 v 0 c 0.11629,-0.66066 -0.39955,-1.34177 -0.96437,-1.4866 z" id="path4569" inkscape:connector-curvature="0" style="fill:#ffffff;stroke:#66696d;stroke-width:2;stroke-linejoin:round"/><path class="st3" d="m 278.76991,187.5174 -13.98596,-3.86947 -5.9025,-8.25896 c -0.87876,-1.19908 -2.58345,-1.31751 -3.68669,-0.46729 0,0 0,0 -0.0958,0.0285 l -0.16314,0.15291 c -1.13178,0.75438 -1.49896,2.32446 -0.74459,3.45624 0.0285,0.0958 0.0285,0.0958 0.0571,0.19169 l 6.5998,9.19906 c 0.54437,0.77695 1.3865,1.15222 2.30614,1.08705 l 15.27493,1.19019 c 0.63213,0.0204 1.16032,-0.65853 1.48661,-0.96437 v 0 c -0.39955,-1.34177 -0.48516,-1.6293 -1.14583,-1.74559 z" id="path4571" inkscape:connector-curvature="0" style="fill:#ffffff;stroke:#66696d;stroke-width:2;stroke-linejoin:round"/><g transform="rotate(-16.58216,198.74676,118.95387)" id="g4573"><rect x="237.8" y="151.5" transform="matrix(0.8997,0.4366,-0.4366,0.8997,95.0245,-89.3523)" class="st3" width="8.1999998" height="21.200001" id="rect4575" style="fill:#ffffff;stroke:#66696d;stroke-width:2;stroke-linejoin:round"/><line class="st5" x1="237.10001" y1="148.2" x2="243" y2="151" id="line4577" style="fill:none;stroke:#66696d;stroke-width:1.5;stroke-linecap:round;stroke-linejoin:round"/><line class="st5" x1="235.89999" y1="150.60001" x2="241.8" y2="153.39999" id="line4579" style="fill:none;stroke:#66696d;stroke-width:1.5;stroke-linecap:round;stroke-linejoin:round"/><line class="st5" x1="234.7" y1="153" x2="240.39999" y2="155.8" id="line4581" style="fill:none;stroke:#66696d;stroke-width:1.5;stroke-linecap:round;stroke-linejoin:round"/><line class="st5" x1="233.60001" y1="155.39999" x2="239.39999" y2="158.3" id="line4583" style="fill:none;stroke:#66696d;stroke-width:1.5;stroke-linecap:round;stroke-linejoin:round"/><rect x="245.60001" y="161.7" transform="matrix(0.8997,0.4366,-0.4366,0.8997,97.1532,-91.9974)" class="st4" width="6.1999998" height="7.3000002" id="rect4585" style="fill:none;stroke:#66696d;stroke-width:2;stroke-linejoin:round"/></g><rect x="271.05792" y="117.32658" transform="rotate(9.3038806)" class="st4" width="2.9001155" height="3.9001553" id="rect4587" style="fill:none;stroke:#66696d;stroke-width:2.00007963;stroke-linejoin:round"/></g><line style="fill:none;stroke:#66696d;stroke-width:2;stroke-linejoin:round" id="line4591" y2="153.79041" x2="188.80298" y1="177.82733" x1="186.57001" class="st4"/></g><path class="st2" d="m 102.78117,28.788314 c -2.44355,-3.758959 -7.417568,-5.105224 -11.256388,-5.975312 -5.68938,-1.095901 -21.47009,-5.12693 -21.47009,-5.12693 l -43.80673,-8.8758074 -9.4823,-1.8265 -4.52645,23.0885454 11.1914,2.835927 c 3.79291,0.730607 47.04791,8.330119 52.70652,9.182217 5.65861,0.852098 9.18382,1.29636 14.69692,1.992545 5.5131,0.696234 12.159648,-3.463833 13.177898,-7.997063 0.57061,-2.442216 0.0856,-5.098302 -1.23081,-7.297615 z" id="path4589-2" inkscape:connector-curvature="0" style="fill:#ffffff;stroke:#66696d;stroke-width:3;stroke-linejoin:round" sodipodi:nodetypes="ccccccczzccc"/><path class="st2" d="m 13.887012,45.937875 c 0,0 13.479523,33.064063 13.624721,46.816838 l 0.141162,0.0087 c -0.09018,2.615694 0.384264,5.266141 1.224622,7.726601 4.063919,11.08939 16.842715,11.80521 28.007022,7.67506 11.164328,-4.13016 9.171942,-7.44081 5.182944,-18.596442 -1.203002,-3.474585 3.539871,-6.866531 0.988275,-9.148936 C 60.904846,77.382619 58.454259,74.610519 55.853817,71.970871 39.562784,55.807261 43.402738,30.256233 43.402738,30.256233 44.372475,24.860903 43.789517,19.369994 41.694031,14.281866 37.992748,4.2066255 26.837319,-1.0141536 16.762078,2.6871295 6.6868377,6.3884125 1.4660586,17.543842 5.1673416,27.619083 v 0 c 1.0303664,2.826368 2.2768073,5.59519 3.7393229,8.306464 1.6612095,2.936056 4.9803635,10.0123 4.9803635,10.0123 z" id="path4593" inkscape:connector-curvature="0" style="fill:#ffffff;stroke:#66696d;stroke-width:3;stroke-linejoin:round"/><path class="st3" d="m 18.482947,8.10644 c -7.032805,2.613376 -10.6997223,10.393073 -8.086353,17.425871 0.667738,1.812216 1.476616,3.633133 2.435341,5.321575 4.497234,7.502979 11.611321,11.624847 17.338978,9.49788 7.099031,-2.538449 9.603129,-13.294355 5.737898,-24.15898 C 33.361675,9.2349087 25.581979,5.567977 18.482947,8.10644 Z" id="path4595" inkscape:connector-curvature="0" style="fill:#ffffff;stroke:#66696d;stroke-width:2;stroke-linejoin:round"/><path class="st2" d="m 61.906894,118.25977 c 0,-5.7 2.5,-9.1 4.5,-12 8.1,-8.5 7.9,-21.9 -0.6,-30.1 -8.5,-8.2 -21.9,-7.9 -30.1,0.6 -1.6,1.7 -3,3.7 -4,5.8 v 0 c -4.5,9.1 -5.1,9.7 -7.7,28.5 0,0 -1,7.8 -6.699999,7.8 v 16.9 h 57.799999 v -4 c 0.2,0.1 -13.2,-4.5 -13.2,-13.5 z" id="path4597" inkscape:connector-curvature="0" style="fill:#ffffff;stroke:#66696d;stroke-width:3;stroke-linejoin:round"/><path sodipodi:nodetypes="cc" style="fill:#ffffff;stroke:#66696d;stroke-width:6.95315981;stroke-linejoin:round;stroke-miterlimit:4;stroke-dasharray:none" inkscape:connector-curvature="0" id="path4603" d="M 193.28956,138.51332 H 0" class="st3"/><g inkscape:transform-center-y="8.4754712" inkscape:transform-center-x="5.5721193" transform="rotate(162.80155,145.0242,186.77372)" id="g4613"><path class="st3" d="m 139.91393,330.46768 h -17.0285" id="path4615" inkscape:connector-curvature="0" style="fill:#ffffff;stroke:#000000;stroke-width:0.99999994;stroke-linejoin:round;stroke-miterlimit:4;stroke-dasharray:none;stroke-opacity:1;marker-start:url(#Arrow2Mstart)" sodipodi:nodetypes="cc"/><path class="st3" d="m 123.36955,313.80964 v 17.0285" id="path4617" inkscape:connector-curvature="0" style="fill:#ffffff;stroke:#000000;stroke-width:0.99999988;stroke-linejoin:round;stroke-miterlimit:4;stroke-dasharray:none;stroke-opacity:1;marker-start:url(#Arrow2Mstart)" sodipodi:nodetypes="cc"/><path class="st3" d="m 132.13694,319.11215 -8.80648,11.64621" id="path4619" inkscape:connector-curvature="0" style="fill:#ffffff;stroke:#000000;stroke-width:0.99999994;stroke-linejoin:round;stroke-miterlimit:4;stroke-dasharray:none;stroke-opacity:1;marker-start:url(#Arrow2Mstart)" sodipodi:nodetypes="cc"/></g><g inkscape:transform-center-y="-8.0615367" inkscape:transform-center-x="7.8562204" transform="matrix(-0.99999982,5.8771357e-4,5.8771357e-4,0.99999982,165.02881,-196.77986)" id="g4621"><path class="st3" d="m 139.91393,330.46768 h -17.0285" id="path4623" inkscape:connector-curvature="0" style="fill:#ffffff;stroke:#000000;stroke-width:0.99999994;stroke-linejoin:round;stroke-miterlimit:4;stroke-dasharray:none;stroke-opacity:1;marker-start:url(#Arrow2Mstart)" sodipodi:nodetypes="cc"/><path class="st3" d="m 123.36955,313.80964 v 17.0285" id="path4625" inkscape:connector-curvature="0" style="fill:#ffffff;stroke:#000000;stroke-width:0.99999988;stroke-linejoin:round;stroke-miterlimit:4;stroke-dasharray:none;stroke-opacity:1;marker-start:url(#Arrow2Mstart)" sodipodi:nodetypes="cc"/><path class="st3" d="m 132.13694,319.11215 -8.80648,11.64621" id="path4627" inkscape:connector-curvature="0" style="fill:#ffffff;stroke:#000000;stroke-width:0.99999994;stroke-linejoin:round;stroke-miterlimit:4;stroke-dasharray:none;stroke-opacity:1;marker-start:url(#Arrow2Mstart)" sodipodi:nodetypes="cc"/></g><g inkscape:transform-center-y="6.6360707" inkscape:transform-center-x="-8.9511336" transform="rotate(74.414014,284.95782,191.86766)" id="g4629"><path class="st3" d="m 139.91393,330.46768 h -17.0285" id="path4631" inkscape:connector-curvature="0" style="fill:#ffffff;stroke:#000000;stroke-width:0.99999994;stroke-linejoin:round;stroke-miterlimit:4;stroke-dasharray:none;stroke-opacity:1;marker-start:url(#Arrow2Mstart)" sodipodi:nodetypes="cc"/><path class="st3" d="m 123.36955,313.80964 v 17.0285" id="path4633" inkscape:connector-curvature="0" style="fill:#ffffff;stroke:#000000;stroke-width:0.99999988;stroke-linejoin:round;stroke-miterlimit:4;stroke-dasharray:none;stroke-opacity:1;marker-start:url(#Arrow2Mstart)" sodipodi:nodetypes="cc"/><path class="st3" d="m 132.13694,319.11215 -8.80648,11.64621" id="path4635" inkscape:connector-curvature="0" style="fill:#ffffff;stroke:#000000;stroke-width:0.99999994;stroke-linejoin:round;stroke-miterlimit:4;stroke-dasharray:none;stroke-opacity:1;marker-start:url(#Arrow2Mstart)" sodipodi:nodetypes="cc"/></g><path sodipodi:nodetypes="cc" inkscape:connector-curvature="0" id="path4637" d="m 132.406,76.54624 c 25.01519,-3.1675 10.03941,-21.75956 10.03941,-21.75956" style="fill:none;stroke:#000000;stroke-width:0.49999997;stroke-linecap:butt;stroke-linejoin:miter;stroke-miterlimit:4;stroke-dasharray:0.49999998, 0.99999997;stroke-dashoffset:0;stroke-opacity:1;marker-start:url(#marker4373);marker-end:none"/><text id="text4641" y="91.845741" x="116.39825" style="font-style:italic;font-weight:normal;line-height:0%;font-family:sans-serif;-inkscape-font-specification:'Sans Italic';letter-spacing:0px;word-spacing:0px;fill:#000000;fill-opacity:1;stroke:none" xml:space="preserve"><tspan y="91.845741" x="116.39825" id="tspan4643" sodipodi:role="line" style="font-size:9.48746109px;line-height:1.25;font-family:sans-serif">robot</tspan></text>

<text id="text4645" y="131.41096" x="45.038841" style="font-style:italic;font-weight:normal;line-height:0%;font-family:sans-serif;-inkscape-font-specification:'Sans Italic';letter-spacing:0px;word-spacing:0px;fill:#000000;fill-opacity:1;stroke:none" xml:space="preserve"><tspan y="131.41096" x="45.038841" id="tspan4647" sodipodi:role="line" style="font-size:9.48746109px;line-height:1.25;font-family:sans-serif">ext</tspan></text>

<g transform="translate(-22.734091,-83.353063)" id="g4649"><text xml:space="preserve" style="font-style:italic;font-weight:normal;line-height:0%;font-family:sans-serif;-inkscape-font-specification:'Sans Italic';letter-spacing:0px;word-spacing:0px;fill:#000000;fill-opacity:1;stroke:none" x="154.88649" y="129.45235" id="text4651"><tspan sodipodi:role="line" id="tspan4653" x="154.88649" y="129.45235" style="font-size:9.48746109px;line-height:1.25;font-family:sans-serif">camera</tspan></text>




</g><path sodipodi:nodetypes="cc" inkscape:connector-curvature="0" id="path4669" d="M 100.42092,85.9204 C 57.962714,93.12322 51.485044,111.16428 51.485044,111.16428" style="fill:none;stroke:#000000;stroke-width:0.59999996;stroke-linecap:butt;stroke-linejoin:miter;stroke-miterlimit:4;stroke-dasharray:none;stroke-dashoffset:0;stroke-opacity:1;marker-start:none;marker-end:url(#Arrow2Mend-9-5)"/><g transform="translate(-342.32995,-41.81271)" id="g4671"><g id="g4673" transform="translate(264.42848,14.106854)"><text xml:space="preserve" style="font-style:italic;font-weight:normal;line-height:0%;font-family:sans-serif;-inkscape-font-specification:'Sans Italic';letter-spacing:0px;word-spacing:0px;fill:#000000;fill-opacity:1;stroke:none" x="154.88649" y="129.45235" id="text4675"><tspan style="font-style:normal;font-weight:bold;font-size:9.48746109px;line-height:1.25;font-family:sans-serif;-inkscape-font-specification:'Sans Bold'" sodipodi:role="line" id="tspan4677" x="154.88649" y="129.45235">T</tspan></text>




<g transform="translate(0.0836048,0.2958226)" id="g4679"><text id="text4681" y="130.16147" x="161.78801" style="font-style:italic;font-weight:normal;line-height:0%;font-family:sans-serif;-inkscape-font-specification:'Sans Italic';letter-spacing:0px;word-spacing:0px;fill:#000000;fill-opacity:1;stroke:none" xml:space="preserve"><tspan y="130.16147" x="161.78801" id="tspan4683" sodipodi:role="line" style="font-size:4.15213203px;line-height:1.25;font-family:sans-serif">robot</tspan></text>




<text id="text4685" y="124.25805" x="161.78801" style="font-style:italic;font-weight:normal;line-height:0%;font-family:sans-serif;-inkscape-font-specification:'Sans Italic';letter-spacing:0px;word-spacing:0px;fill:#000000;fill-opacity:1;stroke:none" xml:space="preserve"><tspan y="124.25805" x="161.78801" id="tspan4687" sodipodi:role="line" style="font-size:4.15213203px;line-height:1.25;font-family:sans-serif">ext</tspan></text>




</g></g></g><g id="g4707" transform="translate(-268.35255,-77.8065)"><g transform="translate(264.42848,14.106854)" id="g4709"><text id="text4711" y="129.45235" x="154.88649" style="font-style:italic;font-weight:normal;line-height:0%;font-family:sans-serif;-inkscape-font-specification:'Sans Italic';letter-spacing:0px;word-spacing:0px;fill:#000000;fill-opacity:1;stroke:none" xml:space="preserve"><tspan y="129.45235" x="154.88649" id="tspan4713" sodipodi:role="line" style="font-style:normal;font-weight:bold;font-size:9.48746109px;line-height:1.25;font-family:sans-serif;-inkscape-font-specification:'Sans Bold'">T</tspan></text>




<g id="g4715" transform="translate(0.0836048,0.2958226)"><text xml:space="preserve" style="font-style:italic;font-weight:normal;line-height:0%;font-family:sans-serif;-inkscape-font-specification:'Sans Italic';letter-spacing:0px;word-spacing:0px;fill:#000000;fill-opacity:1;stroke:none" x="161.78801" y="130.16147" id="text4717"><tspan sodipodi:role="line" id="tspan4719" x="161.78801" y="130.16147" style="font-size:4.15213203px;line-height:1.25;font-family:sans-serif">camera</tspan></text>




<text xml:space="preserve" style="font-style:italic;font-weight:normal;line-height:0%;font-family:sans-serif;-inkscape-font-specification:'Sans Italic';letter-spacing:0px;word-spacing:0px;fill:#000000;fill-opacity:1;stroke:none" x="161.78801" y="124.25805" id="text4721"><tspan sodipodi:role="line" id="tspan4723" x="161.78801" y="124.25805" style="font-size:4.15213203px;line-height:1.25;font-family:sans-serif">robot</tspan></text>




</g></g></g><text xml:space="preserve" style="font-style:normal;font-weight:normal;line-height:0%;font-family:sans-serif;-inkscape-font-specification:Sans;text-align:start;letter-spacing:0px;word-spacing:0px;text-anchor:start;fill:#000000;fill-opacity:1;stroke:none" x="137.51532" y="125.21833" id="text8903"><tspan sodipodi:role="line" x="137.51532" y="125.21833" id="tspan8907" style="font-size:9.48746109px;line-height:1.25;font-family:sans-serif">calibration grid</tspan></text>

<g transform="matrix(0.60986625,0.00337163,-0.00980296,1.7731813,267.57339,-764.97567)" id="g8515"><g transform="matrix(0.77471199,0,0,0.77471199,-57.205696,114.28699)" id="g8517"><g transform="matrix(1,0,0,0.22485912,0,392.13317)" id="g8519"><g id="g8521"><g id="g8523"><rect style="fill:#66696d;fill-opacity:1;stroke:none" id="rect8525" width="12.249819" height="7.6664572" x="-253.9225" y="500.80005"/><rect style="fill:#ffffff;fill-opacity:1;stroke:none" id="rect8527" width="12.249819" height="7.6664572" x="-241.67268" y="500.80005"/><rect style="fill:#66696d;fill-opacity:1;stroke:none" id="rect8529" width="12.249819" height="7.6664572" x="-229.42287" y="500.80005"/><rect style="fill:#ffffff;fill-opacity:1;stroke:none" id="rect8531" width="12.249819" height="7.6664572" x="-217.17305" y="500.80005"/><rect style="fill:#66696d;fill-opacity:1;stroke:none" id="rect8533" width="12.249819" height="7.6664572" x="-204.92323" y="500.80005"/><rect style="fill:#ffffff;fill-opacity:1;stroke:none" id="rect8535" width="12.249819" height="7.6664572" x="-192.67342" y="500.80005"/><rect style="fill:#66696d;fill-opacity:1;stroke:none" id="rect8537" width="12.249819" height="7.6664572" x="-180.42358" y="500.80005"/></g><rect y="500.80005" x="-168.17377" height="7.6664572" width="12.249819" id="rect8539" style="fill:#ffffff;fill-opacity:1;stroke:none"/></g><g id="g8541" transform="translate(97.998552)"><rect style="fill:#66696d;fill-opacity:1;stroke:none" id="rect8543" width="12.249819" height="7.6664572" x="-253.9225" y="500.80005"/></g></g></g><rect style="fill:#66696d;fill-opacity:1;fill-rule:nonzero;stroke:none" id="rect8545" width="85.401497" height="1.2279032" x="-253.9225" y="506.06491"/></g></svg>