<?xml version="1.0" encoding="UTF-8" standalone="no"?>
<!-- Generator: Adobe Illustrator 21.0.2, SVG Export Plug-In . SVG Version: 6.00 Build 0)  -->
<svg xmlns:dc="http://purl.org/dc/elements/1.1/" xmlns:cc="http://creativecommons.org/ns#" xmlns:rdf="http://www.w3.org/1999/02/22-rdf-syntax-ns#" xmlns:svg="http://www.w3.org/2000/svg" xmlns="http://www.w3.org/2000/svg" xmlns:sodipodi="http://sodipodi.sourceforge.net/DTD/sodipodi-0.dtd" xmlns:inkscape="http://www.inkscape.org/namespaces/inkscape" version="1.1" id="Ebene_1" x="0px" y="0px" viewBox="0 0 211.16862 197.85333" xml:space="preserve" inkscape:version="0.92.3 (2405546, 2018-03-11)" width="211.16862" height="197.85333" sodipodi:docname="sketch_handeye_calib_static.svg" inkscape:export-filename="/home/stelzer/doc/sensor_manual/source/images/sketch_handeye_calib_static.png" inkscape:export-xdpi="300" inkscape:export-ydpi="300"><metadata id="metadata69"><rdf:RDF><cc:Work rdf:about=""><dc:format>image/svg+xml</dc:format><dc:type rdf:resource="http://purl.org/dc/dcmitype/StillImage"/><dc:title>ico_robot_inactive</dc:title></cc:Work></rdf:RDF></metadata><defs id="defs67"><inkscape:perspective sodipodi:type="inkscape:persp3d" inkscape:vp_x="0 : 0.49999999 : 1" inkscape:vp_y="0 : 2.4956326 : 0" inkscape:vp_z="0.99999998 : 0.49999999 : 1" inkscape:persp3d-origin="0.49999999 : 0.33333334 : 1" id="perspective6593"/><marker inkscape:stockid="Arrow2Mend" orient="auto" refY="0" refX="0" id="Arrow2Mend" style="overflow:visible"><path id="path3830" style="fill-rule:evenodd;stroke-width:0.625;stroke-linejoin:round" d="M 8.7185878,4.0337352 -2.2072895,0.01601326 8.7185884,-4.0017078 c -1.7454984,2.3720609 -1.7354408,5.6174519 -6e-7,8.035443 z" transform="scale(-0.6)" inkscape:connector-curvature="0"/></marker><marker inkscape:stockid="Arrow1Lstart" orient="auto" refY="0" refX="0" id="Arrow1Lstart" style="overflow:visible"><path id="path3803" d="M 0,0 5,-5 -12.5,0 5,5 Z" style="fill-rule:evenodd;stroke:#000000;stroke-width:1.00000003pt" transform="matrix(0.8,0,0,0.8,10,0)" inkscape:connector-curvature="0"/></marker><marker inkscape:stockid="Arrow2Mstart" orient="auto" refY="0" refX="0" id="Arrow2Mstart" style="overflow:visible"><path id="path3827" style="fill-rule:evenodd;stroke-width:0.625;stroke-linejoin:round" d="M 8.7185878,4.0337352 -2.2072895,0.01601326 8.7185884,-4.0017078 c -1.7454984,2.3720609 -1.7354408,5.6174519 -6e-7,8.035443 z" transform="scale(0.6)" inkscape:connector-curvature="0"/></marker><marker inkscape:stockid="Arrow2Mstart" orient="auto" refY="0" refX="0" id="Arrow2Mstart-6" style="overflow:visible"><path inkscape:connector-curvature="0" id="path3827-7" style="fill-rule:evenodd;stroke-width:0.625;stroke-linejoin:round" d="M 8.7185878,4.0337352 -2.2072895,0.01601326 8.7185884,-4.0017078 c -1.7454984,2.3720609 -1.7354408,5.6174519 -6e-7,8.035443 z" transform="scale(0.6)"/></marker><marker inkscape:stockid="Arrow2Mstart" orient="auto" refY="0" refX="0" id="Arrow2Mstart-3" style="overflow:visible"><path inkscape:connector-curvature="0" id="path3827-5" style="fill-rule:evenodd;stroke-width:0.625;stroke-linejoin:round" d="M 8.7185878,4.0337352 -2.2072895,0.01601326 8.7185884,-4.0017078 c -1.7454984,2.3720609 -1.7354408,5.6174519 -6e-7,8.035443 z" transform="scale(0.6)"/></marker><marker inkscape:stockid="Arrow2Mstart" orient="auto" refY="0" refX="0" id="Arrow2Mstart-2" style="overflow:visible"><path inkscape:connector-curvature="0" id="path3827-9" style="fill-rule:evenodd;stroke-width:0.625;stroke-linejoin:round" d="M 8.7185878,4.0337352 -2.2072895,0.01601326 8.7185884,-4.0017078 c -1.7454984,2.3720609 -1.7354408,5.6174519 -6e-7,8.035443 z" transform="scale(0.6)"/></marker><marker inkscape:stockid="Arrow2Mstart" orient="auto" refY="0" refX="0" id="marker4295" style="overflow:visible"><path inkscape:connector-curvature="0" id="path4297" style="fill-rule:evenodd;stroke-width:0.625;stroke-linejoin:round" d="M 8.7185878,4.0337352 -2.2072895,0.01601326 8.7185884,-4.0017078 c -1.7454984,2.3720609 -1.7354408,5.6174519 -6e-7,8.035443 z" transform="scale(0.6)"/></marker><marker inkscape:stockid="Arrow2Mstart" orient="auto" refY="0" refX="0" id="marker4299" style="overflow:visible"><path inkscape:connector-curvature="0" id="path4301" style="fill-rule:evenodd;stroke-width:0.625;stroke-linejoin:round" d="M 8.7185878,4.0337352 -2.2072895,0.01601326 8.7185884,-4.0017078 c -1.7454984,2.3720609 -1.7354408,5.6174519 -6e-7,8.035443 z" transform="scale(0.6)"/></marker><marker inkscape:stockid="Arrow2Mstart" orient="auto" refY="0" refX="0" id="Arrow2Mstart-9" style="overflow:visible"><path inkscape:connector-curvature="0" id="path3827-3" style="fill-rule:evenodd;stroke-width:0.625;stroke-linejoin:round" d="M 8.7185878,4.0337352 -2.2072895,0.01601326 8.7185884,-4.0017078 c -1.7454984,2.3720609 -1.7354408,5.6174519 -6e-7,8.035443 z" transform="scale(0.6)"/></marker><marker inkscape:stockid="Arrow2Mstart" orient="auto" refY="0" refX="0" id="marker4295-6" style="overflow:visible"><path inkscape:connector-curvature="0" id="path4297-0" style="fill-rule:evenodd;stroke-width:0.625;stroke-linejoin:round" d="M 8.7185878,4.0337352 -2.2072895,0.01601326 8.7185884,-4.0017078 c -1.7454984,2.3720609 -1.7354408,5.6174519 -6e-7,8.035443 z" transform="scale(0.6)"/></marker><marker inkscape:stockid="Arrow2Mstart" orient="auto" refY="0" refX="0" id="marker4299-6" style="overflow:visible"><path inkscape:connector-curvature="0" id="path4301-2" style="fill-rule:evenodd;stroke-width:0.625;stroke-linejoin:round" d="M 8.7185878,4.0337352 -2.2072895,0.01601326 8.7185884,-4.0017078 c -1.7454984,2.3720609 -1.7354408,5.6174519 -6e-7,8.035443 z" transform="scale(0.6)"/></marker><marker inkscape:stockid="Arrow2Mstart" orient="auto" refY="0" refX="0" id="Arrow2Mstart-92" style="overflow:visible"><path inkscape:connector-curvature="0" id="path3827-0" style="fill-rule:evenodd;stroke-width:0.625;stroke-linejoin:round" d="M 8.7185878,4.0337352 -2.2072895,0.01601326 8.7185884,-4.0017078 c -1.7454984,2.3720609 -1.7354408,5.6174519 -6e-7,8.035443 z" transform="scale(0.6)"/></marker><marker inkscape:stockid="Arrow2Mstart" orient="auto" refY="0" refX="0" id="marker4369" style="overflow:visible"><path inkscape:connector-curvature="0" id="path4371" style="fill-rule:evenodd;stroke-width:0.625;stroke-linejoin:round" d="M 8.7185878,4.0337352 -2.2072895,0.01601326 8.7185884,-4.0017078 c -1.7454984,2.3720609 -1.7354408,5.6174519 -6e-7,8.035443 z" transform="scale(0.6)"/></marker><marker inkscape:stockid="Arrow2Mstart" orient="auto" refY="0" refX="0" id="marker4373" style="overflow:visible"><path inkscape:connector-curvature="0" id="path4375" style="fill-rule:evenodd;stroke-width:0.625;stroke-linejoin:round" d="M 8.7185878,4.0337352 -2.2072895,0.01601326 8.7185884,-4.0017078 c -1.7454984,2.3720609 -1.7354408,5.6174519 -6e-7,8.035443 z" transform="scale(0.6)"/></marker><marker inkscape:stockid="Arrow2Mstart" orient="auto" refY="0" refX="0" id="marker4373-9" style="overflow:visible"><path inkscape:connector-curvature="0" id="path4375-2" style="fill-rule:evenodd;stroke-width:0.625;stroke-linejoin:round" d="M 8.7185878,4.0337352 -2.2072895,0.01601326 8.7185884,-4.0017078 c -1.7454984,2.3720609 -1.7354408,5.6174519 -6e-7,8.035443 z" transform="scale(0.6)"/></marker><marker inkscape:stockid="Arrow2Mend" orient="auto" refY="0" refX="0" id="Arrow2Mend-2" style="overflow:visible"><path inkscape:connector-curvature="0" id="path3830-8" style="fill-rule:evenodd;stroke-width:0.625;stroke-linejoin:round" d="M 8.7185878,4.0337352 -2.2072895,0.01601326 8.7185884,-4.0017078 c -1.7454984,2.3720609 -1.7354408,5.6174519 -6e-7,8.035443 z" transform="scale(-0.6)"/></marker><marker inkscape:stockid="Arrow2Mstart" orient="auto" refY="0" refX="0" id="marker4373-2" style="overflow:visible"><path inkscape:connector-curvature="0" id="path4375-9" style="fill-rule:evenodd;stroke-width:0.625;stroke-linejoin:round" d="M 8.7185878,4.0337352 -2.2072895,0.01601326 8.7185884,-4.0017078 c -1.7454984,2.3720609 -1.7354408,5.6174519 -6e-7,8.035443 z" transform="scale(0.6)"/></marker><marker inkscape:stockid="Arrow2Mend" orient="auto" refY="0" refX="0" id="Arrow2Mend-1" style="overflow:visible"><path inkscape:connector-curvature="0" id="path3830-2" style="fill-rule:evenodd;stroke-width:0.625;stroke-linejoin:round" d="M 8.7185878,4.0337352 -2.2072895,0.01601326 8.7185884,-4.0017078 c -1.7454984,2.3720609 -1.7354408,5.6174519 -6e-7,8.035443 z" transform="scale(-0.6)"/></marker><marker inkscape:stockid="Arrow2Mstart" orient="auto" refY="0" refX="0" id="marker4373-4" style="overflow:visible"><path inkscape:connector-curvature="0" id="path4375-99" style="fill-rule:evenodd;stroke-width:0.625;stroke-linejoin:round" d="M 8.7185878,4.0337352 -2.2072895,0.01601326 8.7185884,-4.0017078 c -1.7454984,2.3720609 -1.7354408,5.6174519 -6e-7,8.035443 z" transform="scale(0.6)"/></marker><marker inkscape:stockid="Arrow2Mend" orient="auto" refY="0" refX="0" id="Arrow2Mend-9" style="overflow:visible"><path inkscape:connector-curvature="0" id="path3830-4" style="fill-rule:evenodd;stroke-width:0.625;stroke-linejoin:round" d="M 8.7185878,4.0337352 -2.2072895,0.01601326 8.7185884,-4.0017078 c -1.7454984,2.3720609 -1.7354408,5.6174519 -6e-7,8.035443 z" transform="scale(-0.6)"/></marker><clipPath clipPathUnits="userSpaceOnUse" id="clipPath5280"><rect style="fill:#e6e6e7;fill-opacity:0.28767126;fill-rule:nonzero;stroke:none" id="rect5282" width="61.13084" height="44.350056" x="-317.88129" y="48.992893" ry="1.3876112"/></clipPath><clipPath clipPathUnits="userSpaceOnUse" id="clipPath5291"><path style="fill:#e6e6e7;fill-opacity:0.28767126;fill-rule:nonzero;stroke:none" d="m -274.78501,25.385653 0.376,30.598725 -42.13017,15.375665 c -0.97024,0 -0.625,-55.848725 -0.625,-55.848725 0,-0.970237 42.37884,9.874335 42.37884,9.874335 z" id="path5293" inkscape:connector-curvature="0" sodipodi:nodetypes="cccccc"/></clipPath><clipPath clipPathUnits="userSpaceOnUse" id="clipPath5303"><path sodipodi:nodetypes="cccccc" inkscape:connector-curvature="0" id="path5305" d="m -340.19598,55.332907 -0.38143,30.840597 42.73899,15.497196 c 0.98427,0 0.63404,-56.290179 0.63404,-56.290179 0,-0.977907 -42.99126,9.952386 -42.99126,9.952386 z" style="fill:#e6e6e7;fill-opacity:0.28767126;fill-rule:nonzero;stroke:none"/></clipPath><clipPath clipPathUnits="userSpaceOnUse" id="clipPath5307"><path style="fill:#616165;fill-opacity:0.74885846;fill-rule:nonzero;stroke:none" d="m -192.57786,176.05694 40.35251,-0.0591 c 0.98427,0 13.18518,-32.42533 13.18518,-32.42533 l -65.08834,0.0529 z" id="path5309" inkscape:connector-curvature="0" sodipodi:nodetypes="ccccc"/></clipPath><marker inkscape:stockid="Arrow2Mend" orient="auto" refY="0" refX="0" id="Arrow2Mend-9-5" style="overflow:visible"><path inkscape:connector-curvature="0" id="path3830-4-0" style="fill-rule:evenodd;stroke-width:0.625;stroke-linejoin:round" d="M 8.7185878,4.0337352 -2.2072895,0.01601326 8.7185884,-4.0017078 c -1.7454984,2.3720609 -1.7354408,5.6174519 -6e-7,8.035443 z" transform="scale(-0.6)"/></marker><clipPath clipPathUnits="userSpaceOnUse" id="clipPath5742"><rect style="fill:none;stroke:#66696d;stroke-width:1.528;stroke-miterlimit:4;stroke-dasharray:none;stroke-dashoffset:0;stroke-opacity:1" id="rect5744" width="135.05733" height="112.43" x="143.54271" y="651.01575"/></clipPath><clipPath clipPathUnits="userSpaceOnUse" id="clipPath6619"><rect y="195.70236" x="608.13409" height="113.22748" width="151.15645" id="rect6621" style="fill:none;stroke:#66696d;stroke-width:1.53273737;stroke-miterlimit:4;stroke-dasharray:none;stroke-dashoffset:0;stroke-opacity:1"/></clipPath><clipPath clipPathUnits="userSpaceOnUse" id="clipPath5291-3"><path style="fill:#e6e6e7;fill-opacity:0.28767126;fill-rule:nonzero;stroke:none" d="m -274.78501,25.385653 0.376,30.598725 -42.13017,15.375665 c -0.97024,0 -0.625,-55.848725 -0.625,-55.848725 0,-0.970237 42.37884,9.874335 42.37884,9.874335 z" id="path5293-5" inkscape:connector-curvature="0" sodipodi:nodetypes="cccccc"/></clipPath>








</defs><sodipodi:namedview pagecolor="#ffffff" bordercolor="#666666" borderopacity="1" objecttolerance="10" gridtolerance="10" guidetolerance="10" inkscape:pageopacity="0" inkscape:pageshadow="2" inkscape:window-width="1853" inkscape:window-height="1025" id="namedview65" showgrid="false" inkscape:zoom="4.0000001" inkscape:cx="34.602212" inkscape:cy="105.03986" inkscape:window-x="67" inkscape:window-y="27" inkscape:window-maximized="1" inkscape:current-layer="Ebene_1" showguides="true" inkscape:guide-bbox="true" fit-margin-top="0" fit-margin-left="0" fit-margin-right="0" fit-margin-bottom="0"><inkscape:grid type="xygrid" id="grid6482" originx="-90.181335" originy="-10.29888"/></sodipodi:namedview><style type="text/css" id="style3">
	.st0{fill:#FFFFFF;}
	.st1{fill:#66696D;}
	.st2{fill:#FFFFFF;stroke:#66696D;stroke-width:3;stroke-linejoin:round;}
	.st3{fill:#FFFFFF;stroke:#66696D;stroke-width:2;stroke-linejoin:round;}
	.st4{fill:none;stroke:#66696D;stroke-width:2;stroke-linejoin:round;}
	.st5{fill:none;stroke:#66696D;stroke-width:1.5;stroke-linecap:round;stroke-linejoin:round;}
	.st6{fill:none;stroke:#66696D;stroke-width:5;stroke-linejoin:round;}
	.st7{fill:none;stroke:#66696D;stroke-width:2;stroke-linecap:round;stroke-linejoin:round;}
	.st8{fill:#FFFFFF;stroke:#66696D;stroke-width:5;stroke-linejoin:round;}
</style><title id="title5">ico_robot_inactive</title><path sodipodi:nodetypes="cccc" inkscape:connector-curvature="0" id="path8344" d="M 72.802372,39.26749 180.46378,20.76896 168.8097,132.31505 c 0,0 -76.583868,-12.02404 -96.007328,-93.04756 z" style="fill:#e6e6e7;fill-opacity:1;stroke:none"/><path style="fill:#66696d" inkscape:connector-curvature="0" id="path4747" d="m 99.478972,76.30547 9.664058,-6.05027 3.95851,6.2634 -9.66406,6.05028 z m -4.67023,-1.07655 7.632748,12.06943 15.33029,-9.70321 -7.63275,-12.06943 z" class="st1"/><g id="g7653" transform="matrix(0.32257054,0.51758715,-1.5048805,0.93787131,943.89864,-295.45391)"><g id="g7629" transform="matrix(0.77471199,0,0,0.77471199,-57.205696,114.28699)"><g id="g7609" transform="matrix(1,0,0,0.22485912,0,392.13317)"><g id="g7598"><g id="g7573"><rect y="500.80005" x="-253.9225" height="7.6664572" width="12.249819" id="rect6785-6" style="fill:#66696d;fill-opacity:1;stroke:none"/><rect y="500.80005" x="-241.67268" height="7.6664572" width="12.249819" id="rect6787-8-1" style="fill:#ffffff;fill-opacity:1;stroke:none"/><rect y="500.80005" x="-229.42287" height="7.6664572" width="12.249819" id="rect6785-6-5" style="fill:#66696d;fill-opacity:1;stroke:none"/><rect y="500.80005" x="-217.17305" height="7.6664572" width="12.249819" id="rect6787-8-1-1" style="fill:#ffffff;fill-opacity:1;stroke:none"/><rect y="500.80005" x="-204.92323" height="7.6664572" width="12.249819" id="rect6785-6-3" style="fill:#66696d;fill-opacity:1;stroke:none"/><rect y="500.80005" x="-192.67342" height="7.6664572" width="12.249819" id="rect6787-8-1-0" style="fill:#ffffff;fill-opacity:1;stroke:none"/><rect y="500.80005" x="-180.42358" height="7.6664572" width="12.249819" id="rect6785-6-5-1" style="fill:#66696d;fill-opacity:1;stroke:none"/></g><rect style="fill:#ffffff;fill-opacity:1;stroke:none" id="rect6787-8-1-1-2" width="12.249819" height="7.6664572" x="-168.17377" y="500.80005"/></g><g transform="translate(97.998552)" id="g7582"><rect y="500.80005" x="-253.9225" height="7.6664572" width="12.249819" id="rect7584" style="fill:#66696d;fill-opacity:1;stroke:none"/></g></g></g><rect y="506.06491" x="-253.9225" height="1.2279032" width="85.401497" id="rect7651" style="fill:#66696d;fill-opacity:1;fill-rule:nonzero;stroke:none"/></g><g transform="matrix(-0.91332213,0.40723787,0.40723787,0.91332213,340.08656,-231.1523)" id="g4725"><rect style="fill:#ffffff;stroke:#66696d;stroke-width:2;stroke-linejoin:round" id="rect4727" height="21.200001" width="8.1999998" class="st3" transform="matrix(0.8997,0.4366,-0.4366,0.8997,95.0245,-89.3523)" y="151.5" x="237.8"/><line style="fill:none;stroke:#66696d;stroke-width:1.5;stroke-linecap:round;stroke-linejoin:round" id="line4729" y2="151" x2="243" y1="148.2" x1="237.10001" class="st5"/><line style="fill:none;stroke:#66696d;stroke-width:1.5;stroke-linecap:round;stroke-linejoin:round" id="line4731" y2="153.39999" x2="241.8" y1="150.60001" x1="235.89999" class="st5"/><line style="fill:none;stroke:#66696d;stroke-width:1.5;stroke-linecap:round;stroke-linejoin:round" id="line4733" y2="155.8" x2="240.39999" y1="153" x1="234.7" class="st5"/><line style="fill:none;stroke:#66696d;stroke-width:1.5;stroke-linecap:round;stroke-linejoin:round" id="line4735" y2="158.3" x2="239.39999" y1="155.39999" x1="233.60001" class="st5"/><rect style="fill:none;stroke:#66696d;stroke-width:2;stroke-linejoin:round" id="rect4737" height="7.3000002" width="6.1999998" class="st4" transform="matrix(0.8997,0.4366,-0.4366,0.8997,97.1532,-91.9974)" y="161.7" x="245.60001"/></g><g id="g4739" inkscape:transform-center-x="-16.550634" inkscape:transform-center-y="-32.223138" transform="rotate(-42.286407,-29.587922,297.29986)"><g inkscape:transform-center-y="-27.502456" transform="rotate(40.489922,154.54839,158.60683)" inkscape:transform-center-x="-42.071833" id="g4741"><g id="g4743" inkscape:transform-center-x="-19.671078" transform="rotate(-35.285134,241.72724,169.70615)" inkscape:transform-center-y="-12.025708"><rect x="-154.63242" y="254.0038" transform="rotate(-85.138233)" class="st0" width="10.900283" height="14.800385" id="rect4745" style="fill:#ffffff"/></g><path style="fill:#ffffff;stroke:#66696d;stroke-width:3;stroke-linejoin:round" inkscape:connector-curvature="0" id="path4769" d="m 245.68737,163.66692 0.0775,-0.44044 c 0,0 -0.2773,-0.23045 -0.87066,-0.47112 -1.77796,-1.76603 -4.0841,-2.85309 -6.5453,-3.05927 -0.31606,-0.0102 -0.53628,-0.049 -0.85234,-0.0592 -1.15819,-0.38549 -2.35514,-0.55077 -3.64793,-0.68751 -5.77474,-0.47156 -21.89988,-2.76498 -21.89988,-2.76498 l -44.51155,-4.06595 -9.62457,-0.78593 -1.99229,23.44356 11.43319,1.60378 c 3.84982,0.31438 46.96465,3.54416 53.39197,3.40404 4.97947,0.60403 9.91209,0.70031 14.82639,0.38469 0.31607,0.0102 0.66067,0.11629 0.97673,0.12652 5.6789,0.5001 10.7832,-3.73265 11.25475,-9.50739 0.30202,-2.48974 -0.46853,-5.07745 -2.01604,-7.12079 z" class="st2"/><line style="fill:none;stroke:#66696d;stroke-width:2;stroke-linejoin:round" id="line4771" y2="153.79041" x2="188.80298" y1="177.82733" x1="186.57001" class="st4"/></g><path class="st2" d="m 134.88354,182.41158 c 0,0 -12.2747,33.53001 -21.42066,43.80188 l 0.0986,0.10139 c -1.82665,1.87439 -3.25898,4.15439 -4.29278,6.54004 -4.4549,10.93818 4.5171,20.06579 15.55527,24.5221 11.03819,4.45632 11.79177,0.66658 16.34667,-10.2702 1.44786,-3.37989 7.23882,-2.69804 6.88686,-6.10335 0.45221,-3.69399 0.50446,-7.39361 0.35673,-11.09607 -1.17648,-22.9189 18.85596,-39.23765 18.85596,-39.23765 4.34758,-3.33894 7.6108,-7.7933 9.48406,-12.96737 4.04082,-9.94393 -0.69913,-21.312 -10.64306,-25.35282 -9.94393,-4.04082 -21.312,0.69913 -25.35282,10.64306 v 0 c -1.13943,2.78419 -2.08029,5.67119 -2.82258,8.661 -0.74654,3.28979 -3.05222,10.75798 -3.05222,10.75798 z" id="path4773" inkscape:connector-curvature="0" style="fill:#ffffff;stroke:#66696d;stroke-width:3;stroke-linejoin:round"/><path class="st3" d="m 163.73796,157.51655 c -6.96118,-2.79858 -14.9084,0.48953 -17.70698,7.4507 -0.72534,1.78994 -1.35212,3.68128 -1.77891,5.57544 -1.72127,8.57654 0.76832,16.41248 6.43669,18.69275 6.95976,2.89857 16.04924,-3.3737 20.4999,-14.01192 2.79717,-6.86118 -0.49093,-14.80841 -7.4507,-17.70697 z" id="path4775" inkscape:connector-curvature="0" style="fill:#ffffff;stroke:#66696d;stroke-width:2;stroke-linejoin:round"/></g><path style="fill:#ffffff;stroke:#66696d;stroke-width:3;stroke-linejoin:round" inkscape:connector-curvature="0" id="path4777" d="m 62.80533,173.96598 c 0,-5.7 2.5,-9.1 4.5,-12 8.1,-8.5 7.9,-21.9 -0.6,-30.1 -8.5,-8.2 -21.9,-7.9 -30.1,0.6 -1.6,1.7 -3,3.7 -4,5.8 v 0 c -4.5,9.1 -5.1,9.7 -7.7,28.5 0,0 -1,7.8 -6.7,7.8 v 16.9 h 57.8 v -4 c 0.2,0.1 -13.2,-4.5 -13.2,-13.5 z" class="st2"/><rect style="fill:none;stroke:#66696d;stroke-width:3.00002384;stroke-linejoin:round;stroke-miterlimit:4;stroke-dasharray:none" id="rect4779" height="180.76013" width="6.9194198" class="st4" transform="matrix(0.99997583,-0.00695326,0.00129922,0.99999916,0,0)" y="13.314296" x="199.28062"/><rect style="fill:none;stroke:#66696d;stroke-width:2.00007963;stroke-linejoin:round" id="rect4781" height="2.900214" width="2.8885117" class="st4" transform="rotate(0.66489119)" y="19.799318" x="194.93236" ry="1.3876112"/><path class="st3" d="M 211.16863,194.21953 H 0" id="path4783" inkscape:connector-curvature="0" style="fill:#ffffff;stroke:#66696d;stroke-width:7.26762867;stroke-linejoin:round;stroke-miterlimit:4;stroke-dasharray:none" sodipodi:nodetypes="cc"/><g id="g4785" transform="rotate(132.39835,220.26059,188.36355)" inkscape:transform-center-x="-0.77779384" inkscape:transform-center-y="7.5635179"><path sodipodi:nodetypes="cc" style="fill:#ffffff;stroke:#000000;stroke-width:0.99999994;stroke-linejoin:round;stroke-miterlimit:4;stroke-dasharray:none;stroke-opacity:1;marker-start:url(#Arrow2Mstart)" inkscape:connector-curvature="0" id="path4787" d="m 139.91393,330.46768 h -17.0285" class="st3"/><path sodipodi:nodetypes="cc" style="fill:#ffffff;stroke:#000000;stroke-width:0.99999988;stroke-linejoin:round;stroke-miterlimit:4;stroke-dasharray:none;stroke-opacity:1;marker-start:url(#Arrow2Mstart)" inkscape:connector-curvature="0" id="path4789" d="m 123.36955,313.80964 v 17.0285" class="st3"/><path sodipodi:nodetypes="cc" style="fill:#ffffff;stroke:#000000;stroke-width:0.99999994;stroke-linejoin:round;stroke-miterlimit:4;stroke-dasharray:none;stroke-opacity:1;marker-start:url(#Arrow2Mstart)" inkscape:connector-curvature="0" id="path4791" d="m 132.13694,319.11215 -8.80648,11.64621" class="st3"/></g><g id="g4801" transform="matrix(-0.99999982,5.8771357e-4,5.8771357e-4,0.99999982,261.60113,-140.91984)" inkscape:transform-center-x="7.8562204" inkscape:transform-center-y="-8.0615367"><path sodipodi:nodetypes="cc" style="fill:#ffffff;stroke:#000000;stroke-width:0.99999994;stroke-linejoin:round;stroke-miterlimit:4;stroke-dasharray:none;stroke-opacity:1;marker-start:url(#Arrow2Mstart)" inkscape:connector-curvature="0" id="path4803" d="m 139.91393,330.46768 h -17.0285" class="st3"/><path sodipodi:nodetypes="cc" style="fill:#ffffff;stroke:#000000;stroke-width:0.99999988;stroke-linejoin:round;stroke-miterlimit:4;stroke-dasharray:none;stroke-opacity:1;marker-start:url(#Arrow2Mstart)" inkscape:connector-curvature="0" id="path4805" d="m 123.36955,313.80964 v 17.0285" class="st3"/><path sodipodi:nodetypes="cc" style="fill:#ffffff;stroke:#000000;stroke-width:0.99999994;stroke-linejoin:round;stroke-miterlimit:4;stroke-dasharray:none;stroke-opacity:1;marker-start:url(#Arrow2Mstart)" inkscape:connector-curvature="0" id="path4807" d="m 132.13694,319.11215 -8.80648,11.64621" class="st3"/></g><g id="g4809" transform="rotate(57.268341,352.20554,190.68781)" inkscape:transform-center-x="-8.3054346" inkscape:transform-center-y="3.1348473"><path sodipodi:nodetypes="cc" style="fill:#ffffff;stroke:#000000;stroke-width:0.99999994;stroke-linejoin:round;stroke-miterlimit:4;stroke-dasharray:none;stroke-opacity:1;marker-start:url(#Arrow2Mstart)" inkscape:connector-curvature="0" id="path4811" d="m 139.91393,330.46768 h -17.0285" class="st3"/><path sodipodi:nodetypes="cc" style="fill:#ffffff;stroke:#000000;stroke-width:0.99999988;stroke-linejoin:round;stroke-miterlimit:4;stroke-dasharray:none;stroke-opacity:1;marker-start:url(#Arrow2Mstart)" inkscape:connector-curvature="0" id="path4813" d="m 123.36955,313.80964 v 17.0285" class="st3"/><path sodipodi:nodetypes="cc" style="fill:#ffffff;stroke:#000000;stroke-width:0.99999994;stroke-linejoin:round;stroke-miterlimit:4;stroke-dasharray:none;stroke-opacity:1;marker-start:url(#Arrow2Mstart)" inkscape:connector-curvature="0" id="path4815" d="m 132.13694,319.11215 -8.80648,11.64621" class="st3"/></g><path style="fill:none;stroke:#000000;stroke-width:0.49999997;stroke-linecap:butt;stroke-linejoin:miter;stroke-miterlimit:4;stroke-dasharray:0.49999998, 0.99999997;stroke-dashoffset:0;stroke-opacity:1;marker-start:url(#marker4373);marker-end:none" d="M 151.49484,170.21722 C 200.27542,142.61166 180.65436,38.40446 180.65436,38.40446" id="path4819" inkscape:connector-curvature="0" sodipodi:nodetypes="cc" inkscape:transform-center-x="95.409248" inkscape:transform-center-y="95.636795"/><text xml:space="preserve" style="font-style:italic;font-weight:normal;line-height:0%;font-family:sans-serif;-inkscape-font-specification:'Sans Italic';letter-spacing:0px;word-spacing:0px;fill:#000000;fill-opacity:1;stroke:none" x="131.02713" y="76.724243" id="text4821"><tspan sodipodi:role="line" id="tspan4823" x="131.02713" y="76.724243" style="font-size:9.48746109px;line-height:1.25;font-family:sans-serif">robot</tspan></text>

<text xml:space="preserve" style="font-style:italic;font-weight:normal;line-height:0%;font-family:sans-serif;-inkscape-font-specification:'Sans Italic';letter-spacing:0px;word-spacing:0px;fill:#000000;fill-opacity:1;stroke:none" x="145.08603" y="187.79608" id="text4825"><tspan sodipodi:role="line" id="tspan4827" x="145.08603" y="187.79608" style="font-size:9.48746109px;line-height:1.25;font-family:sans-serif">ext</tspan></text>

<g transform="translate(-15.48726,-119.63871)" id="g4839"><text id="text4841" y="139.45235" x="150.88649" style="font-style:italic;font-weight:normal;line-height:0%;font-family:sans-serif;-inkscape-font-specification:'Sans Italic';letter-spacing:0px;word-spacing:0px;fill:#000000;fill-opacity:1;stroke:none" xml:space="preserve"><tspan y="139.45235" x="150.88649" id="tspan4843" sodipodi:role="line" style="font-size:9.48746109px;line-height:1.25;font-family:sans-serif">camera</tspan></text>




</g><path style="fill:none;stroke:#000000;stroke-width:0.5;stroke-linecap:butt;stroke-linejoin:miter;stroke-miterlimit:4;stroke-dasharray:none;stroke-opacity:1;marker-start:url(#marker4373-4)" d="m 124.21213,169.92342 c -28.90054,-38.94636 -8.39128,-75.8826 -8.39128,-75.8826" id="path4849" inkscape:connector-curvature="0" sodipodi:nodetypes="cc"/><g id="g4851" transform="translate(-329.87821,0.93639)"><g transform="translate(264.42848,14.106854)" id="g4853"><text id="text4855" y="129.45235" x="154.88649" style="font-style:italic;font-weight:normal;line-height:0%;font-family:sans-serif;-inkscape-font-specification:'Sans Italic';letter-spacing:0px;word-spacing:0px;fill:#000000;fill-opacity:1;stroke:none" xml:space="preserve"><tspan y="129.45235" x="154.88649" id="tspan4857" sodipodi:role="line" style="font-style:normal;font-weight:bold;font-size:9.48746109px;line-height:1.25;font-family:sans-serif;-inkscape-font-specification:'Sans Bold'">T</tspan></text>




<g id="g4859" transform="translate(0.0836048,0.2958226)"><text xml:space="preserve" style="font-style:italic;font-weight:normal;line-height:0%;font-family:sans-serif;-inkscape-font-specification:'Sans Italic';letter-spacing:0px;word-spacing:0px;fill:#000000;fill-opacity:1;stroke:none" x="161.78801" y="130.16147" id="text4861"><tspan sodipodi:role="line" id="tspan4863" x="161.78801" y="130.16147" style="font-size:4.15213203px;line-height:1.25;font-family:sans-serif">robot</tspan></text>




<text xml:space="preserve" style="font-style:italic;font-weight:normal;line-height:0%;font-family:sans-serif;-inkscape-font-specification:'Sans Italic';letter-spacing:0px;word-spacing:0px;fill:#000000;fill-opacity:1;stroke:none" x="161.78801" y="124.25805" id="text4865"><tspan sodipodi:role="line" id="tspan4867" x="161.78801" y="124.25805" style="font-size:4.15213203px;line-height:1.25;font-family:sans-serif">ext</tspan></text>




</g></g></g><g id="g4869" transform="translate(-274.31512,0.81141)"><g transform="translate(264.42848,14.106854)" id="g4871"><text id="text4873" y="129.45235" x="154.88649" style="font-style:italic;font-weight:normal;line-height:0%;font-family:sans-serif;-inkscape-font-specification:'Sans Italic';letter-spacing:0px;word-spacing:0px;fill:#000000;fill-opacity:1;stroke:none" xml:space="preserve"><tspan y="129.45235" x="154.88649" id="tspan4875" sodipodi:role="line" style="font-style:normal;font-weight:bold;font-size:9.48746109px;line-height:1.25;font-family:sans-serif;-inkscape-font-specification:'Sans Bold'">T</tspan></text>




<g id="g4877" transform="translate(0.0836048,0.2958226)"><text xml:space="preserve" style="font-style:italic;font-weight:normal;line-height:0%;font-family:sans-serif;-inkscape-font-specification:'Sans Italic';letter-spacing:0px;word-spacing:0px;fill:#000000;fill-opacity:1;stroke:none" x="161.78801" y="130.16147" id="text4879"><tspan sodipodi:role="line" x="161.78801" y="130.16147" id="tspan7777" style="font-size:4.15213203px;line-height:1.25;font-family:sans-serif">camera</tspan></text>




<text xml:space="preserve" style="font-style:italic;font-weight:normal;line-height:0%;font-family:sans-serif;-inkscape-font-specification:'Sans Italic';letter-spacing:0px;word-spacing:0px;fill:#000000;fill-opacity:1;stroke:none" x="161.78801" y="124.25805" id="text4883"><tspan sodipodi:role="line" id="tspan4885" x="161.78801" y="124.25805" style="font-size:4.15213203px;line-height:1.25;font-family:sans-serif">ext</tspan></text>




</g></g></g><flowRoot xml:space="preserve" id="flowRoot7829" style="font-style:normal;font-weight:normal;line-height:0.01%;font-family:sans-serif;letter-spacing:0px;word-spacing:0px;fill:#000000;fill-opacity:1;stroke:none" transform="translate(-140.1149,-602.66968)"><flowRegion id="flowRegion7831" style="font-family:sans-serif"><rect id="rect7833" width="86.267029" height="66.114487" x="212.13203" y="595.86145" style="font-family:sans-serif"/></flowRegion><flowPara id="flowPara7835" style="font-size:40px;line-height:1.25;font-family:sans-serif"> </flowPara></flowRoot><text id="text8909" y="35.724239" x="84.665344" style="font-style:normal;font-weight:normal;line-height:0%;font-family:sans-serif;-inkscape-font-specification:Sans;text-align:center;letter-spacing:0px;word-spacing:0px;text-anchor:middle;fill:#000000;fill-opacity:1;stroke:none" xml:space="preserve"><tspan y="35.724239" x="84.665344" id="tspan8911" sodipodi:role="line" style="font-size:9.48746109px;line-height:1.25;font-family:sans-serif">calibration</tspan><tspan y="47.583565" x="84.665344" sodipodi:role="line" id="tspan8913" style="font-size:9.48746109px;line-height:1.25;font-family:sans-serif">grid</tspan></text>

</svg>